<svg xmlns="http://www.w3.org/2000/svg" viewBox="0 0 150 140.8">
<!-- SVG created with Arrow, by QuiverAI (https://quiver.ai) -->
  <style type="text/css">.cls-0 {fill:#F9F9F9;}
.cls-1 {fill:#E8BD98;}
.cls-2 {fill:#D8A385;}
.cls-3 {fill:#C48F77;}
.cls-4 {fill:#EDCCB2;}
.cls-5 {fill:#F4D3BC;}
.cls-6 {fill:none;stroke:#A87763;stroke-width:0.75;stroke-linecap:round;stroke-linejoin:round;stroke-miterlimit:10;}
.cls-7 {fill:none;stroke:#A87763;stroke-width:0.5;stroke-linecap:round;stroke-linejoin:round;stroke-miterlimit:10;}
.cls-8 {fill:#A87763;}
.cls-9 {fill:none;stroke:#A87763;stroke-width:0.25;stroke-linecap:round;stroke-linejoin:round;stroke-miterlimit:10;}
.cls-10 {fill:#F7DCCC;}
.cls-11 {fill:none;stroke:#A87763;stroke-width:0.35;stroke-linecap:round;stroke-linejoin:round;stroke-miterlimit:10;}</style>
  <path d="m150 103.2c-5.7-5.2-12.5-11.2-16.8-16.4-3.1-3.8-4.4-5.8-7.2-7.5-3.3-1.9-6.9-3.8-11.7-7.8-7.6-6.3-24-22.2-31.9-30.5-3.2-3.4-5.4-8.5-9.6-10.4-2-0.8-5.5-1.5-8.4-2.8-4-1.8-14.2-7.2-18.5-10.5-3.9-3-4.6-3.5-9.1-4.4-3.6-0.8-9.9-2.6-13.2-4.2-3.4-1.7-6.1-2.3-11.3-3.5-2.9-1.4-8.4-3.6-8.4-3.6-0.7 0.4-2.4 1.4-1.6 4.9 0.9 4.2 6.9 8.8 13.7 11l2.9 1.1 0.1 0.3c2.7 1.9 6.3 4.4 14.2 7l1.1 0.5 3.5 3.1c1.8 1.7 4.7 3.9 7.3 5.4l-0.1 0.3c-5.2 0.8-13.2 2.3-16.4 3-1.8 0.4-4.4 2-4.6 5-0.1 4.1-0.4 6.7-1.4 13.5-2.4 0.8-4.2 4.1-3.5 7 0.6 2.6 2.4 4.1 5.3 5.8l0.3 0.7c0.9 1.5 3.7 4.1 5.3 5.8 1.3 1.7 3.6 5.5 5.5 7.4l0.3-0.2 0.8 0.5c1.5 0.6 3-0.2 4-1.6l0.4 0.2c1.8 1.8 5 4.3 6.3 4.8l0.2 0.1 0.4-0.5c1.1 0.5 2 0.5 2.9-0.2l0.2-0.1c0.5 0.2 1.4 0.7 2 0.7 1.2 0 2.6-2.2 2.1-5l-1.5-3.9 0.6-0.1c3.3 1.4 6.5 4.4 8.8 5.5 5 4.9 11 9.8 21.7 12.2l0.1 0.2c2.7 1.8 6.5 5.1 12.5 6.3 2.8 0.5 5 0.5 8.3 3 5.9 3.7 13 15.3 26.6 35.5h17.8v-37.6z" fill="#E8BD98"/>
  <path class="cls-2" d="m105.5 98.2c-0.5-1.7 8.8-2.1 8.3-5-8.8-4.2-13.3-3.1-20.3-2.2-7.1 0.9-17.4-1.7-21.8-5.1-1.1-0.9 4.2-2 6-3.6-12.2 1.4-14.5-2.8-24.1-7.8-4.6-2.4-9.7-3.7-16.1-3.9-6.8-0.2-14.3-2.1-16.9-3.9 1.7 2.3 4.1 3.3 4.1 3.3 1.2 1.9 6.6 3.4 7.6 3.7 2.7 0.8 9 2 9 2l-0.2 6.4 0.5 0.2c1.6 1.8 5 4.1 5.8 4.8l0.5-0.4 1.1 0.2 1.8-0.4 0.2-0.1c2.2 1.8 4.6 0 4-4.3l-1.4-3.9 0.6-0.1c2.6 0.9 7.5 5.1 8.8 5.5 5.6 4.8 11.2 9.8 21.7 12.4 1.7 1.1 6 5.1 12.6 6.3 2.9 0.5 4.8 0.5 8.3 3 4.3 2.9 12.1 14 26.6 35.5h9.7c-10.2-10.8-24.7-32.4-35.3-40.7-0.7-0.6-1-0.8-1.1-1.9z"/>
  <path class="cls-2" d="m37.5 53.6-0.4 2.9 5 0.4 8.3 2.6 0.4-0.5c-0.7-2.1-2.3-6.9-1.8-8.9l0.4-1.5c-2.2 2.4-8.1 5-11.9 5z"/>
  <path class="cls-4" d="m40.2 37.1 7.1-1.1-2.4-1c-4.2 0.6-13.8 2.3-16.4 3.1-2.9 0.9-4.2 2.5-4.4 5.3l0.3 3.9c0.7-5.2 2.3-6.9 4.6-7.6s8.1-1.8 11.2-2.6z"/>
  <path class="cls-2" d="m33.2 56.1c2.2-2.7 1.5-6.2-0.7-10.5 1.8 0 5 3 5 8 2 0.4 7.4-0.7 11.5-3.6l0.5-1.4 0.5-7.1-9.8-4.4 7.1-1.1-2.2-1.1 0.1 0.1c-4.1 0.6-13.5 2.3-16.6 3.1-2.7 0.8-4.5 2.5-4.6 5.1l-0.4 6.7-1.1 6.8c3.1-0.8 7.6-0.8 10.7-0.6zm4.1-7.7c-0.7-0.7-3.2-4-6.7-4.4 2.9 0.3-0.9-0.1 0 0 2.9 0.3 6.5 1.7 6.7 4.4z"/>
  <path class="cls-1" d="m36.6 25.6c2.6 2.2 4.5 4.1 6.6 5.4 2.7 1.6 6.8 4.6 10.7 3.5-3.5 2.2-1.6 5.9 0.5 8.1 2.4 2.6 5.5 5 6.4 5.3 2 0.7-0.6-4.3 7.1-6.5-2.9 1.5-4.3 4-4.3 6.8 0 2.5 0.8 10.9 1.5 11.7 0.8 1.1 4.6-3 6.4-3.5-1.8 2.8-4 4.3-3.4 4.3 2.3 0.3 6.3 0.3 7.5-0.1-2.8 1.7-8.5 1.9-12.2 1.5-4-0.2-9.3-1.1-13-2.6l-4.9-2-8.3-1 0.6-3.1c4.1 0.2 8.6-1.8 11.2-3.7l0.9-1.1 0.1-3c0-3.3-1.4-5-1.4-5l-8.4-3.5 7.1-1.1-2.2-1.1c-2.3-1.2-5.9-3.7-10.4-8.3l1.9-1z"/>
  <path class="cls-4" d="m10.2 4.5c5.7 1.1 13.4 4.5 18 6.1 3.9 1.3 9.9 3.1 12.2 4.5 2.8 1.4 4 1.6 6.5 3.4 9.2 5.6 15 10.4 24.8 13.5 4.2 1.2 6.5 5.7 7.3 9 0.4 2.2-0.4-3.5-0.8-3.3 6 5.3 19.5 18.8 27.7 26.7 8.1 7.7 13.1 10.5 20 14.2-9.5-5.1-18.2-13.5-23.1-18.2-5.9-5.9-16.7-16.3-20.5-20.4-4.1-4.3-5.8-8.4-9.5-9.6-2.9-0.9-5.3-1.4-8.4-2.7-3.8-1.7-14.3-7.3-18.5-10.4-3.8-2.9-4.6-3.6-9.1-4.4-3.6-0.8-9.9-2.6-13.2-4.2-3.4-1.7-6.1-2.3-11.3-3.5l-2.1-0.7z"/>
  <path class="cls-2" d="m2.8 8.7c4.1 3.7 10.8 6.7 16.9 7.8l-0.6 2.4c-5.4-0.9-13-4.9-16.3-10.2z"/>
  <path class="cls-2" d="m19 16.9c3.5 1.7 5.1 3.7 13.8 6.3 2.8 0.8 3.8 1.5 2.8 1.9l-1.5 0.8c-5-0.8-12.2-4.2-15.2-6.8l0.1-2.2z"/>
  <path class="cls-4" d="m27.7 56.4c5.7 1.1 12.7 1.5 17.4 3.1 2.8 0.9 6 3.9 13 5 3.5 0.5 7.8 0.1 11.4 0.4 4.5 0.3 8 1.1 11.5 2.3-2.1-2.1-5.4-3.1-6-4.6-0.3-1.1 1.1-2.5 3.4-2.9-4.5 0.7-8.4 2.4-12.9 2.2-3.8 0-10.1-0.5-15.3-2.8-3.1-1.4-5.2-2-9.2-2.2-3.3-0.2-9.4-1-13.3-0.5z"/>
  <path class="cls-2" d="m29.5 75.9c2.1 2 4.4 5.7 5.9 7.3-0.5-1.3 0.2-3.7 0.2-3.7l-5-4.1-1.1 0.5z"/>
  <path class="cls-2" d="m24.6 70c3 1.6 5.8 3.1 11 5 2.6 1 5 1.6 5.4 4.7l0.5 1.7 0.1-6.3-9.7-2.2-7.5-2.9h0.2z"/>
  <path class="cls-4" d="m29.8 75.6 5.8 5.8 0.3-2.5c-0.8-1.2-3.5-4.2-6.1-3.3z"/>
  <path class="cls-1" d="m41.5 82.5 5.9 4.1 0.1-4.1-3.9-2.6-2.1 1.5v1.1z"/>
  <path class="cls-6" d="m3.9 2.1c-1.6 0.4-2.2 2.3-1.4 4.8 1.4 3.8 7.7 9 16.1 11.5l0.4 0.2c2.6 1.8 6 4.4 14.2 7.1 2.2 0.7 2.9 2.2 5.4 4.3 2.5 2.4 6 4.4 8.9 6 1 0.5 2 1.5 2.4 2.7 0.7 2.5 1.2 5.5 2.6 8.2-1.4-3-1.9-6.7-2.6-8.5-0.8-1.5-1.4-2-3.3-3"/>
  <path class="cls-7" d="m3.9 1.9c0.8-0.5 6.3 1.3 8.4 2.5 5.2 1.2 7.9 1.3 11.3 3 6.3 3 13 4.3 16.5 5.7"/>
  <path class="cls-6" d="m40.1 13.7c2.9 0.7 3.8 1.2 5.8 2.7 4 3 13.8 8.3 18.5 10.6 3.7 1.9 7.7 2.7 9.2 3.4 3.6 1.5 4.9 4.3 8 8 4.3 5 21.2 20.6 28 27 9.9 9 14 11 17.6 13.3 3.5 2.2 5.1 4.9 7.7 7.8 4.1 4.9 10.7 10.1 15.1 14.6"/>
  <path class="cls-7" d="m12.3 4.6c4.6 1.3 7.4 1.4 11.1 3.1"/>
  <path class="cls-6" d="m84.7 96c3.3 2.4 7.2 5.4 12.6 6.3 3.1 0.3 4.6 0.6 7.8 2.7 4.8 3.1 9.1 9.6 27.1 35.8"/>
  <path class="cls-7" d="m45 35c-3.9 0.6-11.6 2.1-16.4 3.1-2 0.5-4.4 2.1-4.6 5.3-0.1 4.5-0.6 7.2-1.4 13.1"/>
  <path class="cls-6" d="m21.1 67.1c1.5 1.4 3.3 2.4 5.3 3.3 5 2 8.3 3.6 16.4 4.6 4.7 0.5 7.6 1 12.3 3.4 3.5 2 6.8 5 8.9 5.6 3.7 1.4 9.4 1.4 11.6-0.8"/>
  <path class="cls-9" d="m24.4 70c0.3 1.4 3.7 4.4 5.6 6.4"/>
  <path class="cls-6" d="m40.6 82.1c2 2 5 4.4 6.9 5.1"/>
  <path class="cls-7" d="m50.6 86.4c2.8 2 4.9-0.4 4.5-4.3-0.2-1.2-1.2-3.2-1.7-3.9"/>
  <path class="cls-8" d="m39.5 15 0.7-1.4 0.2 0.1-0.9 1.3z"/>
  <path class="cls-8" d="m40.9 16.1 1.7-1.5 0.2 0.3-1.9 1.2z"/>
  <path class="cls-8" d="m43.4 16.6 0.7-0.6 0.1 0.1-0.8 0.5z"/>
  <path class="cls-8" d="m18.9 19c0.2-2.4 1.5-3.6 2.7-5.1-0.7 1.7-2.2 3.5-2.5 5l-0.2 0.1z"/>
  <path class="cls-8" d="m35.1 26.6c1.5-0.7 1-2 1.8-3l1.9-2.7c-0.6 1-1.9 3.3-2.2 4.6-0.2 0.6-1 0.9-1.5 1.1z"/>
  <path class="cls-2" d="m34.1 25.4 1.3-0.8-0.7 0.8h-0.6z"/>
  <path class="cls-6" d="m22.6 56.9c2.8-1.2 5.9-1 12.8-0.5 8 0.7 9.7 0.5 13.2 2.2 6.4 2.8 11.6 3.8 19.1 3.5 6.2 0 8.2-1.5 9.4-2l1.3-0.2"/>
  <path class="cls-7" d="m41.3 75.1c0.8 4 0.1 8.3-3.4 8.8-3 0-2.3-2.5-2-4.9 0-0.8-3.8-4.6-5.9-3.4"/>
  <path class="cls-11" d="m29.8 76c1.3 1.9 3.8 6.1 5.7 7.4"/>
  <path class="cls-6" d="m49.4 76.6c1.7 1.6 3 4 2.5 7.1-0.5 2.8-2.5 3.8-4.4 2.9"/>
  <path class="cls-9" d="m41.5 82.5c0.6-3.4 3.4-2.8 5.9-0.4 0.5 0.5-0.5 3 0.1 5.1"/>
  <path class="cls-7" d="m37.4 53.6c2 0.4 8.2-0.4 11.6-4.5"/>
  <path class="cls-8" d="m49.7 41.6-0.8 10.8c0 2.1 0.8 4.5 1.5 6.7l0.3-0.1c-0.8-2.6-1.8-5.4-1.3-8.4l0.3-9z"/>
  <path class="cls-8" d="m61.7 61.9c1.7-5.3 0.7-9.4 0.9-12.9 0.3-4 2.5-6.6 5.3-7.6-1.4 1-4.3 2.5-4.5 7.6-0.2 4.4 0.2 7.6-1 13.1l-0.7-0.2z"/>
  <path class="cls-8" d="m65.1 62.1c3.6-2.6 7.8-6.5 8.8-11.5-0.7 4.3-4.7 8.5-8.3 11.5h-0.5z"/>
  <path class="cls-8" d="m53.6 47.9c1.5 2.7 5.5 6.5 7.5 8v-0.3c-2.1-1.2-6.1-4.6-7.5-7.7z"/>
  <path class="cls-8" d="m32.5 45.6c2.1 0.5 5.6 5.1 5 8.8l-0.4 2.1h0.1l0.3-2.1c0.6-4-3.1-8.5-5-8.8z"/>
  <path class="cls-8" d="m85.1 96c3.6 0.6 8.8 0.9 12.4 0.7-3.1-0.1-7.8-0.2-12.4-0.8v0.1z"/>
  <path class="cls-2" d="m98.7 97.9c1.4 0.5 2.9 0.2 4.3 1-0.6-0.7-2.6-1.2-4.3-1z"/>
  <path class="cls-8" d="m39.4 68.2c-0.8-3.2 0-6.8 1.9-9.1-1.6 2.5-2.6 6-1.9 9.1z"/>
  <path class="cls-8" d="m42.5 69.5c0.5-3.8 2.4-6.9 1.6-10.1 1.4 2.2-0.6 7.1-1.6 10.1z"/>
  <path class="cls-8" d="m45.4 69.6c1.3-2 2.5-5.9 1.7-9 1.3 2.5 0.4 6.9-1.7 9z"/>
  <path d="m3.9 2.1c1.6 1 5.1 2 7.7 2.3-2.6-0.7-5.9-1.3-7.7-2.3z" fill="#A87763"/>
  <path class="cls-1" d="m19.3 62.4c0-2 1.6-5.7 4.7-5.7 1.9 0 5.6 0.8 7.6 1.7 1 0.5-0.2 6.8-1.6 9.3-1 1.2-6.8 0-8.9-0.6-1-0.7-1.8-2.7-1.8-4.7z"/>
  <path d="m29.2 67.4c-2-3.7-1.1-8 2.2-9 1.2 0.6-0.8 8.6-2.2 9z" fill="#F7D7C3"/>
  <path class="cls-8" d="m20.7 66.6c1.7 1 6.7 1.3 8 1.3s1.4-0.7 2-2.5c0.8-2.5 1.4-6.4 0.7-6.8-1.2-0.6-5.8-2-7.8-1.7 3-0.8 7.8 1 8.1 1.3 1.2 0.7 0 6.5-1.3 9.2-0.4 0.7-1.2 1-2 1-2.4 0-6.8-0.7-7.7-1.8z"/>
</svg>